<svg width="416" height="79" viewBox="0 0 416 79" fill="none" xmlns="http://www.w3.org/2000/svg">
<path d="M100.667 43.798L92.7148 11.7559C91.6785 7.57672 88.9291 3.98828 85.1749 1.91456C81.4155 -0.153863 76.9389 -0.573543 72.8673 0.798354L70.1932 1.69414C68.7221 2.18612 67.9278 3.78549 68.4187 5.26319L69.306 7.93998C69.7952 9.41767 71.3839 10.2165 72.8533 9.7245L75.1643 8.95038C77.0704 8.31205 79.1973 8.32086 80.9789 9.25545C82.7832 10.2024 84.0597 11.8229 84.5507 13.8085L91.2945 40.9325C87.4036 39.7317 82.564 38.7354 77.0563 38.7354C70.9595 38.7354 64.0842 39.9732 56.9177 43.4506H44.0858C36.9194 39.9697 30.044 38.7336 23.9454 38.7336C18.436 38.7336 13.5964 39.7299 9.70547 40.9307L16.4493 13.8049C16.9385 11.8211 18.2186 10.1988 20.0229 9.25368C21.8044 8.3191 23.9296 8.31028 25.8357 8.94862L28.145 9.72274C29.6144 10.2147 31.203 9.41591 31.6923 7.93821L32.5795 5.26143C33.0705 3.78373 32.2762 2.18436 30.805 1.69238L28.131 0.79659C24.0594 -0.575307 19.5828 -0.157389 15.8233 1.9128C12.0691 3.98828 9.31971 7.57496 8.2834 11.7524L0.33316 43.798C0.112099 44.6914 0.00022011 45.6087 0 46.5294L0 58.917C0 70.0086 9.04441 79 20.2 79H26.7089C37.2788 79 46.062 70.8991 46.8528 60.4194L47.3665 53.6076H53.6352L54.149 60.4194C54.938 70.8991 63.7212 79 74.2911 79H80.8C91.9556 79 101 70.0086 101 58.9188V46.5312C101 45.6089 100.888 44.692 100.667 43.798ZM35.6621 59.566C35.3167 64.1348 31.3836 67.7145 26.7089 67.7145H20.2C15.2499 67.7145 11.2222 63.7681 11.2222 58.917V52.2974C14.3995 51.153 18.8358 50.0191 23.9489 50.0191C28.1327 50.0191 32.2358 50.7827 36.211 52.2974L35.6621 59.566V59.566ZM89.7778 58.9188C89.7778 63.7698 85.75 67.7145 80.8 67.7145H74.2911C69.6146 67.7145 65.6816 64.1348 65.3379 59.566L64.789 52.2974C68.7642 50.7827 72.869 50.0191 77.0546 50.0191C82.1607 50.0191 86.5987 51.1547 89.776 52.2991V58.9188H89.7778Z" fill="#1A2930"/>
<path d="M28.512 18.464H18.672V47H10.56V18.464H0.72V12.032H28.512V18.464ZM41.5781 31.568C41.5781 30.976 41.4981 30.4 41.3381 29.84C41.1941 29.28 40.9461 28.784 40.5941 28.352C40.2581 27.904 39.8101 27.544 39.2501 27.272C38.6901 27 38.0101 26.864 37.2101 26.864C35.8021 26.864 34.6981 27.272 33.8981 28.088C33.0981 28.888 32.5701 30.048 32.3141 31.568H41.5781ZM32.2181 35.888C32.4581 37.968 33.0901 39.48 34.1141 40.424C35.1381 41.352 36.4581 41.816 38.0741 41.816C38.9381 41.816 39.6821 41.712 40.3061 41.504C40.9301 41.296 41.4821 41.064 41.9621 40.808C42.4581 40.552 42.9061 40.32 43.3061 40.112C43.7221 39.904 44.1541 39.8 44.6021 39.8C45.1941 39.8 45.6421 40.016 45.9461 40.448L48.1061 43.112C47.3381 43.992 46.5061 44.712 45.6101 45.272C44.7301 45.816 43.8181 46.248 42.8741 46.568C41.9461 46.872 41.0101 47.08 40.0661 47.192C39.1381 47.32 38.2501 47.384 37.4021 47.384C35.6581 47.384 34.0181 47.104 32.4821 46.544C30.9621 45.968 29.6261 45.12 28.4741 44C27.3381 42.88 26.4341 41.488 25.7621 39.824C25.1061 38.16 24.7781 36.224 24.7781 34.016C24.7781 32.352 25.0581 30.776 25.6181 29.288C26.1941 27.8 27.0101 26.496 28.0661 25.376C29.1381 24.256 30.4261 23.368 31.9301 22.712C33.4501 22.056 35.1621 21.728 37.0661 21.728C38.7141 21.728 40.2181 21.984 41.5781 22.496C42.9541 23.008 44.1301 23.752 45.1061 24.728C46.0981 25.704 46.8661 26.904 47.4101 28.328C47.9701 29.736 48.2501 31.336 48.2501 33.128C48.2501 33.688 48.2261 34.144 48.1781 34.496C48.1301 34.848 48.0421 35.128 47.9141 35.336C47.7861 35.544 47.6101 35.688 47.3861 35.768C47.1781 35.848 46.9061 35.888 46.5701 35.888H32.2181ZM67.7891 27.56C67.5971 27.864 67.3891 28.08 67.1651 28.208C66.9571 28.336 66.6851 28.4 66.3491 28.4C65.9971 28.4 65.6451 28.328 65.2931 28.184C64.9411 28.024 64.5571 27.856 64.1411 27.68C63.7411 27.504 63.2851 27.344 62.7731 27.2C62.2611 27.04 61.6771 26.96 61.0211 26.96C60.0771 26.96 59.3491 27.144 58.8371 27.512C58.3411 27.864 58.0931 28.36 58.0931 29C58.0931 29.464 58.2531 29.848 58.5731 30.152C58.9091 30.456 59.3491 30.728 59.8931 30.968C60.4371 31.192 61.0531 31.408 61.7411 31.616C62.4291 31.824 63.1331 32.056 63.8531 32.312C64.5731 32.568 65.2771 32.872 65.9651 33.224C66.6531 33.56 67.2691 33.984 67.8131 34.496C68.3571 34.992 68.7891 35.6 69.1091 36.32C69.4451 37.04 69.6131 37.904 69.6131 38.912C69.6131 40.144 69.3891 41.28 68.9411 42.32C68.4931 43.36 67.8211 44.256 66.9251 45.008C66.0451 45.76 64.9491 46.344 63.6371 46.76C62.3411 47.176 60.8451 47.384 59.1491 47.384C58.3011 47.384 57.4531 47.304 56.6051 47.144C55.7571 46.984 54.9331 46.768 54.1331 46.496C53.3491 46.224 52.6211 45.904 51.9491 45.536C51.2771 45.152 50.7011 44.744 50.2211 44.312L51.9491 41.576C52.1411 41.256 52.3811 41.008 52.6691 40.832C52.9731 40.64 53.3571 40.544 53.8211 40.544C54.2531 40.544 54.6371 40.64 54.9731 40.832C55.3251 41.024 55.7011 41.232 56.1011 41.456C56.5011 41.68 56.9651 41.888 57.4931 42.08C58.0371 42.272 58.7171 42.368 59.5331 42.368C60.1091 42.368 60.5971 42.312 60.9971 42.2C61.3971 42.072 61.7171 41.904 61.9571 41.696C62.1971 41.488 62.3731 41.256 62.4851 41C62.5971 40.744 62.6531 40.48 62.6531 40.208C62.6531 39.712 62.4851 39.304 62.1491 38.984C61.8131 38.664 61.3731 38.392 60.8291 38.168C60.2851 37.928 59.6611 37.712 58.9571 37.52C58.2691 37.312 57.5651 37.08 56.8451 36.824C56.1251 36.568 55.4131 36.264 54.7091 35.912C54.0211 35.544 53.4051 35.088 52.8611 34.544C52.3171 33.984 51.8771 33.304 51.5411 32.504C51.2051 31.704 51.0371 30.736 51.0371 29.6C51.0371 28.544 51.2371 27.544 51.6371 26.6C52.0531 25.64 52.6691 24.8 53.4851 24.08C54.3011 23.36 55.3251 22.792 56.5571 22.376C57.7891 21.944 59.2291 21.728 60.8771 21.728C61.7731 21.728 62.6371 21.808 63.4691 21.968C64.3171 22.128 65.1091 22.352 65.8451 22.64C66.5811 22.928 67.2531 23.272 67.8611 23.672C68.4691 24.056 69.0051 24.48 69.4691 24.944L67.7891 27.56ZM82.2521 47.384C81.0681 47.384 80.0201 47.216 79.1081 46.88C78.2121 46.528 77.4521 46.04 76.8281 45.416C76.2201 44.776 75.7561 44.008 75.4361 43.112C75.1161 42.216 74.9561 41.216 74.9561 40.112V27.248H72.8441C72.4601 27.248 72.1321 27.128 71.8601 26.888C71.5881 26.632 71.4521 26.264 71.4521 25.784V22.88L75.4121 22.112L76.8761 16.04C77.0681 15.272 77.6121 14.888 78.5081 14.888H82.3961V22.16H88.5641V27.248H82.3961V39.608C82.3961 40.184 82.5321 40.664 82.8041 41.048C83.0921 41.416 83.5001 41.6 84.0281 41.6C84.3001 41.6 84.5241 41.576 84.7001 41.528C84.8921 41.464 85.0521 41.4 85.1801 41.336C85.3241 41.256 85.4521 41.192 85.5641 41.144C85.6921 41.08 85.8361 41.048 85.9961 41.048C86.2201 41.048 86.3961 41.104 86.5241 41.216C86.6681 41.312 86.8121 41.472 86.9561 41.696L89.2121 45.224C88.2521 45.944 87.1721 46.488 85.9721 46.856C84.7721 47.208 83.5321 47.384 82.2521 47.384ZM116.202 37.952C116.394 37.952 116.586 37.992 116.778 38.072C116.97 38.136 117.154 38.256 117.33 38.432L120.546 41.816C119.138 43.656 117.37 45.048 115.242 45.992C113.13 46.92 110.626 47.384 107.73 47.384C105.074 47.384 102.69 46.936 100.578 46.04C98.482 45.128 96.698 43.88 95.226 42.296C93.77 40.696 92.65 38.808 91.866 36.632C91.082 34.44 90.69 32.064 90.69 29.504C90.69 26.896 91.114 24.504 91.962 22.328C92.81 20.136 94.002 18.248 95.538 16.664C97.074 15.08 98.914 13.848 101.058 12.968C103.202 12.088 105.562 11.648 108.138 11.648C109.45 11.648 110.682 11.768 111.834 12.008C113.002 12.232 114.09 12.552 115.098 12.968C116.106 13.368 117.034 13.856 117.882 14.432C118.73 15.008 119.482 15.632 120.138 16.304L117.402 19.976C117.226 20.2 117.018 20.408 116.778 20.6C116.538 20.776 116.202 20.864 115.77 20.864C115.482 20.864 115.21 20.8 114.954 20.672C114.698 20.544 114.426 20.392 114.138 20.216C113.85 20.024 113.53 19.824 113.178 19.616C112.842 19.392 112.434 19.192 111.954 19.016C111.49 18.824 110.938 18.664 110.298 18.536C109.674 18.408 108.938 18.344 108.09 18.344C106.746 18.344 105.514 18.592 104.394 19.088C103.29 19.584 102.33 20.312 101.514 21.272C100.714 22.216 100.09 23.384 99.642 24.776C99.21 26.152 98.994 27.728 98.994 29.504C98.994 31.296 99.234 32.888 99.714 34.28C100.21 35.672 100.874 36.848 101.706 37.808C102.554 38.752 103.538 39.472 104.658 39.968C105.778 40.464 106.978 40.712 108.258 40.712C108.994 40.712 109.666 40.68 110.274 40.616C110.882 40.536 111.45 40.416 111.978 40.256C112.506 40.08 113.002 39.856 113.466 39.584C113.93 39.296 114.402 38.936 114.882 38.504C115.074 38.344 115.282 38.216 115.506 38.12C115.73 38.008 115.962 37.952 116.202 37.952ZM134.18 21.728C136.067 21.728 137.787 22.024 139.339 22.616C140.891 23.208 142.219 24.056 143.323 25.16C144.444 26.264 145.308 27.608 145.916 29.192C146.539 30.76 146.851 32.528 146.851 34.496C146.851 36.48 146.539 38.272 145.916 39.872C145.308 41.456 144.444 42.808 143.323 43.928C142.219 45.032 140.891 45.888 139.339 46.496C137.787 47.088 136.067 47.384 134.18 47.384C132.275 47.384 130.539 47.088 128.971 46.496C127.419 45.888 126.075 45.032 124.939 43.928C123.82 42.808 122.948 41.456 122.324 39.872C121.715 38.272 121.411 36.48 121.411 34.496C121.411 32.528 121.715 30.76 122.324 29.192C122.948 27.608 123.82 26.264 124.939 25.16C126.075 24.056 127.419 23.208 128.971 22.616C130.539 22.024 132.275 21.728 134.18 21.728ZM134.18 41.864C135.891 41.864 137.148 41.264 137.948 40.064C138.764 38.848 139.172 37.008 139.172 34.544C139.172 32.08 138.764 30.248 137.948 29.048C137.148 27.848 135.891 27.248 134.18 27.248C132.419 27.248 131.131 27.848 130.315 29.048C129.499 30.248 129.091 32.08 129.091 34.544C129.091 37.008 129.499 38.848 130.315 40.064C131.131 41.264 132.419 41.864 134.18 41.864ZM150.598 47V22.112H155.206C156.134 22.112 156.742 22.528 157.03 23.36L157.438 24.704C157.854 24.272 158.286 23.88 158.734 23.528C159.182 23.16 159.662 22.848 160.174 22.592C160.702 22.32 161.262 22.112 161.854 21.968C162.462 21.808 163.126 21.728 163.846 21.728C165.35 21.728 166.59 22.12 167.566 22.904C168.558 23.672 169.31 24.704 169.822 26C170.238 25.232 170.742 24.576 171.334 24.032C171.942 23.488 172.59 23.048 173.278 22.712C173.982 22.376 174.718 22.128 175.486 21.968C176.27 21.808 177.046 21.728 177.814 21.728C179.238 21.728 180.502 21.944 181.606 22.376C182.71 22.792 183.63 23.408 184.366 24.224C185.118 25.024 185.686 26.016 186.07 27.2C186.454 28.368 186.646 29.696 186.646 31.184V47H179.206V31.184C179.206 28.608 178.102 27.32 175.894 27.32C174.886 27.32 174.046 27.656 173.374 28.328C172.718 28.984 172.39 29.936 172.39 31.184V47H164.95V31.184C164.95 29.76 164.67 28.76 164.11 28.184C163.55 27.608 162.726 27.32 161.638 27.32C160.966 27.32 160.326 27.472 159.718 27.776C159.126 28.08 158.566 28.488 158.038 29V47H150.598ZM198.866 40.232C199.426 40.84 200.034 41.272 200.69 41.528C201.346 41.784 202.034 41.912 202.754 41.912C203.442 41.912 204.074 41.776 204.65 41.504C205.226 41.232 205.722 40.8 206.138 40.208C206.57 39.6 206.906 38.816 207.146 37.856C207.386 36.896 207.506 35.728 207.506 34.352C207.506 33.04 207.41 31.936 207.218 31.04C207.026 30.144 206.754 29.424 206.402 28.88C206.066 28.32 205.658 27.92 205.178 27.68C204.698 27.44 204.162 27.32 203.57 27.32C202.482 27.32 201.586 27.52 200.882 27.92C200.178 28.32 199.506 28.904 198.866 29.672V40.232ZM198.41 25.184C199.386 24.144 200.49 23.296 201.722 22.64C202.97 21.968 204.45 21.632 206.162 21.632C207.458 21.632 208.658 21.92 209.762 22.496C210.866 23.072 211.818 23.904 212.618 24.992C213.418 26.08 214.042 27.416 214.49 29C214.954 30.568 215.186 32.352 215.186 34.352C215.186 36.224 214.922 37.952 214.394 39.536C213.882 41.12 213.154 42.496 212.21 43.664C211.282 44.832 210.162 45.744 208.85 46.4C207.554 47.056 206.114 47.384 204.53 47.384C203.234 47.384 202.146 47.2 201.266 46.832C200.386 46.464 199.586 45.968 198.866 45.344V54.896H191.426V22.112H196.034C196.962 22.112 197.57 22.528 197.858 23.36L198.41 25.184ZM231.876 36.872C230.388 36.936 229.164 37.064 228.204 37.256C227.244 37.448 226.484 37.688 225.924 37.976C225.364 38.264 224.972 38.592 224.748 38.96C224.54 39.328 224.436 39.728 224.436 40.16C224.436 41.008 224.668 41.608 225.132 41.96C225.596 42.296 226.276 42.464 227.172 42.464C228.132 42.464 228.972 42.296 229.692 41.96C230.412 41.624 231.14 41.08 231.876 40.328V36.872ZM218.484 25.568C219.988 24.24 221.652 23.256 223.476 22.616C225.316 21.96 227.284 21.632 229.38 21.632C230.884 21.632 232.236 21.88 233.436 22.376C234.652 22.856 235.676 23.536 236.508 24.416C237.356 25.28 238.004 26.312 238.452 27.512C238.9 28.712 239.124 30.024 239.124 31.448V47H235.716C235.012 47 234.476 46.904 234.108 46.712C233.756 46.52 233.46 46.12 233.22 45.512L232.692 44.144C232.068 44.672 231.468 45.136 230.892 45.536C230.316 45.936 229.716 46.28 229.092 46.568C228.484 46.84 227.828 47.04 227.124 47.168C226.436 47.312 225.668 47.384 224.82 47.384C223.684 47.384 222.652 47.24 221.724 46.952C220.796 46.648 220.004 46.208 219.348 45.632C218.708 45.056 218.212 44.344 217.86 43.496C217.508 42.632 217.332 41.64 217.332 40.52C217.332 39.624 217.556 38.72 218.004 37.808C218.452 36.88 219.228 36.04 220.332 35.288C221.436 34.52 222.924 33.88 224.796 33.368C226.668 32.856 229.028 32.568 231.876 32.504V31.448C231.876 29.992 231.572 28.944 230.964 28.304C230.372 27.648 229.524 27.32 228.42 27.32C227.54 27.32 226.82 27.416 226.26 27.608C225.7 27.8 225.196 28.016 224.748 28.256C224.316 28.496 223.892 28.712 223.476 28.904C223.06 29.096 222.564 29.192 221.988 29.192C221.476 29.192 221.044 29.064 220.692 28.808C220.34 28.552 220.052 28.248 219.828 27.896L218.484 25.568ZM250.743 24.8C251.223 24.352 251.719 23.936 252.231 23.552C252.743 23.168 253.287 22.848 253.863 22.592C254.455 22.32 255.087 22.112 255.759 21.968C256.447 21.808 257.191 21.728 257.991 21.728C259.351 21.728 260.551 21.968 261.591 22.448C262.647 22.912 263.535 23.568 264.255 24.416C264.975 25.248 265.519 26.248 265.887 27.416C266.255 28.568 266.439 29.824 266.439 31.184V47H258.999V31.184C258.999 29.968 258.719 29.024 258.159 28.352C257.599 27.664 256.775 27.32 255.687 27.32C254.871 27.32 254.103 27.496 253.383 27.848C252.679 28.184 251.991 28.648 251.319 29.24V47H243.879V22.112H248.487C249.415 22.112 250.023 22.528 250.311 23.36L250.743 24.8ZM294.144 22.112L280.848 53.456C280.624 53.952 280.352 54.312 280.032 54.536C279.712 54.776 279.2 54.896 278.496 54.896H272.928L277.728 44.816L267.792 22.112H274.368C274.944 22.112 275.384 22.24 275.688 22.496C276.008 22.752 276.24 23.056 276.384 23.408L280.464 34.136C280.848 35.112 281.16 36.112 281.4 37.136C281.576 36.624 281.752 36.112 281.928 35.6C282.104 35.088 282.288 34.584 282.48 34.088L286.176 23.408C286.32 23.04 286.576 22.736 286.944 22.496C287.312 22.24 287.712 22.112 288.144 22.112H294.144Z" transform="translate(121 10)" fill="#1A2930"/>
</svg>
